<svg width="20" height="20" viewBox="0 0 20 20" fill="none" xmlns="http://www.w3.org/2000/svg">
<path d="M18.8718 13.526L18.1868 5.30672C18.0602 3.78748 17.9969 3.02786 17.6605 2.45292C17.3642 1.94663 16.9231 1.54072 16.3939 1.28753C15.793 1 15.0308 1 13.5063 1H6.49371C4.96921 1 4.20695 1 3.60606 1.28752C3.07692 1.54072 2.63577 1.94663 2.33951 2.45292C2.00308 3.02786 1.93978 3.78748 1.81317 5.30672L1.12823 13.526C0.981088 15.2918 0.907516 16.1746 1.20599 16.8557C1.46822 17.454 1.92258 17.9478 2.49711 18.2589C3.15102 18.6128 4.03694 18.6128 5.80877 18.6128H14.1912C15.9631 18.6128 16.849 18.6128 17.5029 18.2589C18.0774 17.9478 18.5318 17.454 18.794 16.8557C19.0925 16.1746 19.0189 15.2918 18.8718 13.526Z" fill="#4465DC" stroke="#4465DC" stroke-width="2" stroke-linecap="round" stroke-linejoin="round"/>
<path d="M13.9139 5.89258C13.9139 6.93063 13.5015 7.92616 12.7675 8.66017C12.0335 9.39418 11.038 9.80654 9.9999 9.80654C8.96186 9.80654 7.96632 9.39418 7.23231 8.66017C6.4983 7.92616 6.08594 6.93063 6.08594 5.89258" stroke="#F5F5F5" stroke-width="2" stroke-linecap="round" stroke-linejoin="round"/>
</svg>
