<svg width="22" height="20" viewBox="0 0 22 20" fill="none" xmlns="http://www.w3.org/2000/svg">
<path d="M4.90516 2.96914C4.90516 2.47976 4.90517 2.23507 4.99365 2.04531C5.08749 1.84407 5.24923 1.68233 5.45047 1.58849C5.64023 1.5 5.88492 1.5 6.3743 1.5H15.7138C16.2032 1.5 16.4479 1.5 16.6376 1.58849C16.8389 1.68233 17.0006 1.84407 17.0945 2.04531C17.1829 2.23507 17.1829 2.47976 17.1829 2.96914V8.58333C17.1829 11.9737 14.4345 14.7222 11.0441 14.7222C7.65364 14.7222 4.90516 11.9737 4.90516 8.58333V2.96914Z" fill="#4465DC"/>
<path d="M11.0441 14.7222C7.65364 14.7222 4.90517 11.9737 4.90517 8.58333V2.96914C4.90517 2.47976 4.90517 2.23507 4.99365 2.04531C5.08749 1.84407 5.24923 1.68233 5.45047 1.58849C5.64023 1.5 5.88492 1.5 6.3743 1.5H15.7138C16.2032 1.5 16.4479 1.5 16.6376 1.58849C16.8389 1.68233 17.0006 1.84407 17.0945 2.04531C17.1829 2.23507 17.1829 2.47976 17.1829 2.96914V8.58333C17.1829 11.9737 14.4345 14.7222 11.0441 14.7222ZM11.0441 14.7222V18.5M15.7663 18.5H6.32183M20.4885 3.38889V8.11111M1.59961 3.38889V8.11111" stroke="#4465DC" stroke-width="2" stroke-linecap="round" stroke-linejoin="round"/>
</svg>
