<svg width="20" height="20" viewBox="0 0 20 20" fill="none" xmlns="http://www.w3.org/2000/svg">
<path fill-rule="evenodd" clip-rule="evenodd" d="M10 19C14.9706 19 19 14.9706 19 10C19 5.02944 14.9706 1 10 1C5.02944 1 1 5.02944 1 10V19H10Z" fill="#BCBCC8"/>
<path d="M1 19H0C0 19.5523 0.447715 20 1 20L1 19ZM18 10C18 14.4183 14.4183 18 10 18V20C15.5228 20 20 15.5228 20 10H18ZM10 2C14.4183 2 18 5.58172 18 10H20C20 4.47715 15.5228 0 10 0V2ZM2 10C2 5.58172 5.58172 2 10 2V0C4.47715 0 0 4.47715 0 10H2ZM2 19V10H0V19H2ZM10 18H1V20H10V18Z" fill="#BCBCC8"/>
<path fill-rule="evenodd" clip-rule="evenodd" d="M7 10.25C7 10.9404 6.44036 11.5 5.75 11.5C5.05964 11.5 4.5 10.9404 4.5 10.25C4.5 9.55964 5.05964 9 5.75 9C6.44036 9 7 9.55964 7 10.25ZM11.25 10.25C11.25 10.9404 10.6904 11.5 10 11.5C9.30964 11.5 8.75 10.9404 8.75 10.25C8.75 9.55964 9.30964 9 10 9C10.6904 9 11.25 9.55964 11.25 10.25ZM14.25 11.5C14.9404 11.5 15.5 10.9404 15.5 10.25C15.5 9.55964 14.9404 9 14.25 9C13.5596 9 13 9.55964 13 10.25C13 10.9404 13.5596 11.5 14.25 11.5Z" fill="#F5F5F5"/>
</svg>
