<svg width="18" height="16" viewBox="0 0 18 16" fill="none" xmlns="http://www.w3.org/2000/svg">
<path d="M9.03703 11.9352C6.21168 11.9352 3.92129 9.64481 3.92129 6.81947V2.14097C3.92129 1.73315 3.92129 1.52924 3.99503 1.37111C4.07322 1.20341 4.20801 1.06863 4.37571 0.990426C4.53384 0.916687 4.73775 0.916687 5.14557 0.916687H12.9285C13.3363 0.916687 13.5402 0.916687 13.6983 0.990426C13.866 1.06863 14.0008 1.20341 14.079 1.37111C14.1528 1.52924 14.1528 1.73315 14.1528 2.14097V6.81947C14.1528 9.64481 11.8624 11.9352 9.03703 11.9352ZM9.03703 11.9352V15.0834M12.9722 15.0834H5.10184M16.9074 2.49076V6.42595M1.16666 2.49076V6.42595" stroke="black" stroke-width="1.5" stroke-linecap="round" stroke-linejoin="round"/>
</svg>
