<svg width="30" height="30" viewBox="0 0 30 30" fill="none" xmlns="http://www.w3.org/2000/svg">
<path d="M1 6C1 3.79086 2.79086 2 5 2H25C27.2091 2 29 3.79086 29 6V10H1V6Z" fill="#BCBCC8"/>
<path d="M12.3986 23C14.4413 23 15.8846 22.0323 15.8788 20.6667C15.8846 19.7097 15.192 19.0323 13.8535 18.8925V18.828C14.8487 18.7258 15.5703 18.129 15.5645 17.2581C15.5703 15.957 14.2726 15 12.4219 15C10.5306 15 9.18041 15.9946 9.17459 17.4086H11.2929C11.3046 16.9247 11.7759 16.5806 12.4219 16.5806C13.0155 16.5806 13.4287 16.914 13.4229 17.3871C13.4287 17.8763 12.9399 18.2258 12.2357 18.2258H11.386V19.6452H12.2357C13.0097 19.6505 13.5393 20 13.5393 20.4946C13.5393 20.9946 13.0795 21.3441 12.4103 21.3441C11.7352 21.3441 11.2522 21.0108 11.2347 20.5484H9C9.01746 21.9839 10.4258 23 12.3986 23Z" fill="#69708A"/>
<path d="M21 15.1075H18.9515L16.8681 16.2796V18.0323L18.7304 17H18.7769V22.8925H21V15.1075Z" fill="#69708A"/>
<path fill-rule="evenodd" clip-rule="evenodd" d="M9 1C9 0.447715 9.44771 0 10 0C10.5523 0 11 0.447715 11 1V2H19V1C19 0.447715 19.4477 0 20 0C20.5523 0 21 0.447715 21 1V2H25C27.2091 2 29 3.79086 29 6V26C29 28.2091 27.2091 30 25 30H5C2.79086 30 1 28.2091 1 26V6C1 3.79086 2.79086 2 5 2H9V1ZM19 4V5C19 5.55228 19.4477 6 20 6C20.5523 6 21 5.55228 21 5V4H25C26.1046 4 27 4.89543 27 6V9H3V6C3 4.89543 3.89543 4 5 4H9V5C9 5.55228 9.44771 6 10 6C10.5523 6 11 5.55228 11 5V4H19ZM3 11V26C3 27.1046 3.89543 28 5 28H25C26.1046 28 27 27.1046 27 26V11H3Z" fill="#69708A"/>
</svg>
