<svg width="18" height="18" viewBox="0 0 18 18" fill="none" xmlns="http://www.w3.org/2000/svg">
<path d="M5.14725 8.35792L2.13516 2.96789C1.78882 2.34812 1.61565 2.03823 1.64483 1.78451C1.67029 1.56315 1.78786 1.36277 1.96868 1.23256C2.17592 1.08331 2.53091 1.08331 3.24089 1.08331H5.01012C5.27398 1.08331 5.40591 1.08331 5.52425 1.12142C5.62896 1.15514 5.7255 1.21031 5.8077 1.28341C5.9006 1.36603 5.96756 1.4797 6.10149 1.70705L8.99868 6.62498L11.8959 1.70705C12.0298 1.4797 12.0968 1.36603 12.1897 1.28341C12.2719 1.21031 12.3684 1.15514 12.4731 1.12142C12.5914 1.08331 12.7234 1.08331 12.9872 1.08331H14.7565C15.4664 1.08331 15.8214 1.08331 16.0287 1.23256C16.2095 1.36277 16.3271 1.56315 16.3525 1.78451C16.3817 2.03823 16.2085 2.34812 15.8622 2.96789L12.8501 8.35792M7.81118 10.5833L8.99868 9.79165V13.75M8.0091 13.75H9.98826M12.6373 8.13216C14.6469 10.1417 14.6469 13.3999 12.6373 15.4095C10.6278 17.419 7.3696 17.419 5.36002 15.4095C3.35045 13.3999 3.35045 10.1417 5.36002 8.13216C7.36959 6.12259 10.6278 6.12259 12.6373 8.13216Z" stroke="black" stroke-width="1.5" stroke-linecap="round" stroke-linejoin="round"/>
</svg>
