<svg width="18" height="16" viewBox="0 0 18 16" fill="none" xmlns="http://www.w3.org/2000/svg">
<path d="M16.4563 4.95343V8.04468M7.37571 3.0214H4.7095C3.41105 3.0214 2.76183 3.0214 2.26589 3.27409C1.82965 3.49637 1.47497 3.85104 1.25269 4.28729C0.999999 4.78323 0.999999 5.43245 1 6.7309L1 7.65828C1 8.37845 1 8.73853 1.11766 9.02258C1.27453 9.4013 1.57542 9.70219 1.95414 9.85906C2.23818 9.97672 2.59827 9.97672 3.31844 9.97672V13.2612C3.31844 13.4406 3.31844 13.5303 3.32588 13.6059C3.39816 14.3397 3.97874 14.9203 4.71257 14.9926C4.78814 15 4.87785 15 5.05727 15C5.23669 15 5.32641 15 5.40197 14.9926C6.1358 14.9203 6.71638 14.3397 6.78866 13.6059C6.7961 13.5303 6.7961 13.4406 6.7961 13.2612V9.97672H7.37571C8.74083 9.97672 10.4107 10.7085 11.6991 11.4108C12.4506 11.8205 12.8264 12.0253 13.0726 11.9952C13.3008 11.9672 13.4734 11.8648 13.6071 11.6778C13.7514 11.4761 13.7514 11.0726 13.7514 10.2655V2.73258C13.7514 1.92554 13.7514 1.52202 13.6071 1.32035C13.4734 1.13334 13.3008 1.03086 13.0726 1.00291C12.8264 0.972763 12.4506 1.17762 11.6991 1.58733C10.4107 2.28963 8.74083 3.0214 7.37571 3.0214Z" stroke="black" stroke-width="1.5" stroke-linecap="round" stroke-linejoin="round"/>
</svg>
