<svg width="20" height="19" viewBox="0 0 20 19" fill="none" xmlns="http://www.w3.org/2000/svg">
<g clip-path="url(#clip0_894_2336)">
<path d="M7.30859 8.6048H8.46052L7.88456 6.96826L7.30859 8.6048Z" fill="#3A2929"/>
<path d="M10 0C4.47692 0 0 3.52981 0 7.88461C0 10.7 1.87212 13.1702 4.6875 14.5654C4.53462 15.0933 3.70288 17.9635 3.67019 18.1894C3.67019 18.1894 3.65 18.3587 3.75962 18.4231C3.86923 18.4875 3.99808 18.4375 3.99808 18.4375C4.3125 18.3933 7.64615 16.0519 8.22308 15.6452C8.8 15.7269 9.39327 15.7692 9.99904 15.7692C15.5221 15.7692 19.999 12.2394 19.999 7.88461C19.999 3.52981 15.5231 0 10 0ZM5.04808 10.0856C5.04808 10.3894 4.78942 10.6365 4.47115 10.6365C4.15288 10.6365 3.89423 10.3894 3.89423 10.0856V6.65865H2.99423C2.68173 6.65865 2.42788 6.40481 2.42788 6.09327C2.42788 5.78173 2.68173 5.52788 2.99423 5.52788H5.94808C6.26058 5.52788 6.51442 5.78173 6.51442 6.09327C6.51442 6.40481 6.26058 6.65865 5.94808 6.65865H5.04808V10.0856ZM9.89712 10.55C9.78462 10.6019 9.65769 10.6298 9.53077 10.6298C9.29039 10.6298 9.10577 10.5317 9.05096 10.375L8.76538 9.62692H7.00577L6.72019 10.375C6.66538 10.5317 6.48077 10.6298 6.24039 10.6298C6.11346 10.6298 5.98654 10.6019 5.87404 10.55C5.71538 10.4769 5.5625 10.275 5.7375 9.73077L7.11731 6.09808C7.21442 5.82211 7.50962 5.5375 7.88558 5.52885C8.2625 5.5375 8.55769 5.82211 8.65481 6.09904L10.0346 9.72981C10.2106 10.275 10.0577 10.4769 9.89808 10.55H9.89712ZM12.8125 10.5529H10.9615C10.6567 10.5529 10.4087 10.3154 10.4087 10.024V6.10577C10.4087 5.7875 10.6731 5.52885 10.9971 5.52885C11.3212 5.52885 11.5856 5.7875 11.5856 6.10577V9.49519H12.8115C13.1163 9.49519 13.3644 9.73269 13.3644 10.024C13.3644 10.3154 13.1163 10.5529 12.8115 10.5529H12.8125ZM17.3288 10.1183C17.3077 10.2712 17.2279 10.4058 17.1048 10.499C17.0038 10.575 16.8837 10.6154 16.7577 10.6154C16.575 10.6154 16.4067 10.5317 16.2971 10.3865L14.9442 8.59423L14.7442 8.79423V10.0529C14.7442 10.3712 14.4856 10.6298 14.1673 10.6298C13.849 10.6298 13.5904 10.3712 13.5904 10.0529V6.10577C13.5904 5.7875 13.849 5.52885 14.1673 5.52885C14.4856 5.52885 14.7442 5.7875 14.7442 6.10577V7.34615L16.3538 5.73654C16.4365 5.65385 16.55 5.60769 16.674 5.60769C16.8183 5.60769 16.9625 5.67019 17.0712 5.77788C17.1721 5.87885 17.2327 6.00865 17.2404 6.14327C17.249 6.27981 17.2038 6.40385 17.1135 6.49423L15.799 7.80865L17.2192 9.69038C17.3125 9.81346 17.3519 9.96538 17.3298 10.1183H17.3288Z" fill="#3A2929"/>
</g>
<defs>
<clipPath id="clip0_894_2336">
<rect width="20" height="18.4558" fill="white"/>
</clipPath>
</defs>
</svg>
