<svg width="10" height="11" viewBox="0 0 10 11" fill="none" xmlns="http://www.w3.org/2000/svg">
<path d="M9.76562 0.25H8.82812C8.71094 0.25 8.59375 0.367188 8.59375 0.484375C8.59375 0.503906 8.59375 0.503906 8.59375 0.503906L8.67188 2.125C7.79297 1.07031 6.46484 0.40625 5 0.40625C2.32422 0.40625 0.136719 2.59375 0.15625 5.26953C0.15625 7.94531 2.32422 10.0938 5 10.0938C6.25 10.0938 7.38281 9.625 8.24219 8.86328C8.28125 8.80469 8.32031 8.74609 8.32031 8.6875C8.32031 8.60938 8.28125 8.55078 8.24219 8.51172L7.57812 7.84766C7.53906 7.80859 7.48047 7.78906 7.42188 7.78906C7.36328 7.78906 7.30469 7.80859 7.26562 7.84766C6.66016 8.375 5.85938 8.6875 5 8.6875C3.08594 8.6875 1.5625 7.16406 1.5625 5.25C1.5625 3.35547 3.08594 1.8125 5 1.8125C6.17188 1.8125 7.22656 2.41797 7.85156 3.33594L5.85938 3.23828C5.85938 3.23828 5.85938 3.23828 5.83984 3.23828C5.72266 3.23828 5.60547 3.35547 5.60547 3.47266H5.625V4.41016C5.625 4.52734 5.72266 4.64453 5.85938 4.64453H9.76562C9.88281 4.64453 10 4.52734 10 4.41016V0.484375C10 0.367188 9.88281 0.25 9.76562 0.25Z" fill="#69708A"/>
</svg>
