<svg width="17" height="16" viewBox="0 0 17 16" fill="none" xmlns="http://www.w3.org/2000/svg">
<path d="M16.25 8C16.25 3.75 12.75 0.25 8.5 0.25C4.21875 0.25 0.75 3.75 0.75 8C0.75 12.2812 4.21875 15.75 8.5 15.75C12.75 15.75 16.25 12.2812 16.25 8ZM7.59375 12.125C7.40625 12.3125 7.0625 12.3125 6.875 12.125L3.625 8.875C3.4375 8.6875 3.4375 8.34375 3.625 8.15625L4.34375 7.46875C4.53125 7.25 4.84375 7.25 5.03125 7.46875L7.25 9.65625L11.9375 4.96875C12.125 4.75 12.4375 4.75 12.625 4.96875L13.3438 5.65625C13.5312 5.84375 13.5312 6.1875 13.3438 6.375L7.59375 12.125Z" fill="white"/>
</svg>
