<svg width="18" height="15" viewBox="0 0 18 15" fill="none" xmlns="http://www.w3.org/2000/svg">
<path d="M5.66058 14.6294C12.4535 14.6294 16.1684 9.00159 16.1684 4.12159C16.1684 3.96209 16.1652 3.80259 16.1579 3.64415C16.8793 3.12341 17.5057 2.47274 18 1.73229C17.3388 2.02594 16.6258 2.22452 15.879 2.31324C16.6416 1.85588 17.2268 1.13233 17.5025 0.270407C16.7885 0.693973 15.9984 1.00135 15.1576 1.16719C14.4837 0.448917 13.5235 0 12.4619 0C10.4223 0 8.76815 1.65413 8.76815 3.69274C8.76815 3.98216 8.80089 4.26419 8.86427 4.53459C5.79579 4.38038 3.07376 2.9111 1.25274 0.676017C0.935861 1.22211 0.752069 1.85588 0.752069 2.53189C0.752069 3.81316 1.40379 4.94443 2.39563 5.60566C1.79039 5.58664 1.22106 5.42081 0.722493 5.14406C0.722493 5.15991 0.722493 5.1747 0.722493 5.1916C0.722493 6.98093 1.99531 8.47345 3.68535 8.81251C3.3748 8.89701 3.04841 8.94243 2.71146 8.94243C2.4738 8.94243 2.24247 8.9192 2.01749 8.87589C2.48753 10.3431 3.85118 11.411 5.46728 11.4405C4.20292 12.4313 2.61111 13.0218 0.880934 13.0218C0.583064 13.0218 0.28942 13.0049 0 12.9711C1.63406 14.0189 3.57549 14.6294 5.66058 14.6294Z" fill="#1D9BF0"/>
</svg>
