<svg width="16" height="16" viewBox="0 0 16 16" fill="none" xmlns="http://www.w3.org/2000/svg">
<path d="M15 6.6H1M11.1111 1V3.8M4.88889 1V3.8M4.73333 15H11.2667C12.5735 15 13.2269 15 13.726 14.7711C14.165 14.5698 14.522 14.2485 14.7457 13.8534C15 13.4042 15 12.8161 15 11.64V5.76C15 4.58389 15 3.99583 14.7457 3.54662C14.522 3.15148 14.165 2.83022 13.726 2.62889C13.2269 2.4 12.5735 2.4 11.2667 2.4H4.73333C3.42654 2.4 2.77315 2.4 2.27402 2.62889C1.83498 2.83022 1.47802 3.15148 1.25432 3.54662C1 3.99583 1 4.58389 1 5.76V11.64C1 12.8161 1 13.4042 1.25432 13.8534C1.47802 14.2485 1.83498 14.5698 2.27402 14.7711C2.77315 15 3.42654 15 4.73333 15Z" stroke="black" stroke-width="1.5" stroke-linecap="round" stroke-linejoin="round"/>
</svg>
