<svg width="20" height="16" viewBox="0 0 20 16" fill="none" xmlns="http://www.w3.org/2000/svg">
<mask id="mask0_894_2423" style="mask-type:alpha" maskUnits="userSpaceOnUse" x="0" y="0" width="20" height="16">
<path d="M20 0H0V15.493H20V0Z" fill="white"/>
</mask>
<g mask="url(#mask0_894_2423)">
<path d="M16.9298 1.38028C15.6537 0.794364 14.2875 0.363378 12.8594 0.118308C12.834 0.112674 12.8087 0.126758 12.7946 0.149294C12.6199 0.46197 12.4227 0.87042 12.2875 1.19155C10.7495 0.960561 9.21993 0.960561 7.71571 1.19155C7.5805 0.864787 7.37768 0.46197 7.20021 0.149294C7.18613 0.126758 7.16078 0.115491 7.13543 0.118308C5.70726 0.363378 4.34106 0.794364 3.065 1.38028C3.05374 1.38591 3.04528 1.39436 3.03683 1.40281C0.445284 5.27605 -0.264575 9.05352 0.081904 12.7859C0.081904 12.8028 0.0931716 12.8225 0.107256 12.8338C1.81712 14.0901 3.47627 14.8535 5.10162 15.3577C5.12697 15.3662 5.15514 15.3577 5.17205 15.3352C5.55796 14.8084 5.89881 14.2563 6.19458 13.6732C6.21148 13.6394 6.19458 13.6 6.16078 13.5859C5.61712 13.3803 5.09881 13.1268 4.60021 12.8423C4.56078 12.8197 4.55796 12.7634 4.59458 12.7352C4.69881 12.6563 4.80303 12.5746 4.90444 12.493C4.92134 12.4789 4.94669 12.4761 4.96923 12.4845C8.24247 13.9803 11.7861 13.9803 15.0199 12.4845C15.0425 12.4732 15.0678 12.4761 15.0847 12.493C15.1861 12.5746 15.2904 12.6592 15.3946 12.7352C15.4312 12.7634 15.4284 12.8197 15.3889 12.8423C14.8904 13.1324 14.372 13.3803 13.8284 13.5859C13.7918 13.6 13.7777 13.6394 13.7946 13.6761C14.096 14.2592 14.4368 14.8113 14.8143 15.338C14.8312 15.3606 14.8594 15.369 14.8847 15.3606C16.5185 14.8563 18.1749 14.093 19.8875 12.8366C19.9016 12.8254 19.9129 12.8084 19.9129 12.7915C20.3298 8.47606 19.2143 4.72958 16.9551 1.40845C16.9495 1.39718 16.9411 1.38873 16.9298 1.38591V1.38028ZM6.68472 10.5155C5.69881 10.5155 4.88754 9.61127 4.88754 8.49859C4.88754 7.38591 5.68472 6.48169 6.68472 6.48169C7.68472 6.48169 8.49881 7.39436 8.4819 8.49859C8.4819 9.60845 7.68472 10.5155 6.68472 10.5155ZM13.3298 10.5155C12.3439 10.5155 11.5326 9.61127 11.5326 8.49859C11.5326 7.38591 12.3298 6.48169 13.3298 6.48169C14.3298 6.48169 15.1439 7.39436 15.127 8.49859C15.127 9.60845 14.3382 10.5155 13.3298 10.5155Z" fill="#5865F2"/>
</g>
</svg>
