<svg width="18" height="18" viewBox="0 0 18 18" fill="none" xmlns="http://www.w3.org/2000/svg">
<path d="M8.2093 3.0814H5.07829C3.82577 3.0814 3.19951 3.0814 2.72111 3.32516C2.3003 3.53957 1.95817 3.8817 1.74376 4.30251C1.5 4.78091 1.5 5.40717 1.5 6.65969V12.9217C1.5 14.1742 1.5 14.8005 1.74376 15.2789C1.95817 15.6997 2.3003 16.0418 2.72111 16.2562C3.19951 16.5 3.82577 16.5 5.07829 16.5H11.3403C12.5928 16.5 13.2191 16.5 13.6975 16.2562C14.1183 16.0418 14.4604 15.6997 14.6748 15.2789C14.9186 14.8005 14.9186 14.1742 14.9186 12.9217V9.7907M5.97285 12.0271H7.22118C7.58586 12.0271 7.76819 12.0271 7.93978 11.9859C8.09192 11.9494 8.23735 11.8892 8.37075 11.8074C8.52121 11.7152 8.65014 11.5863 8.90801 11.3284L16.0368 4.19962C16.6544 3.58204 16.6544 2.58076 16.0368 1.96318C15.4192 1.34561 14.418 1.34561 13.8004 1.96318L6.67156 9.09199C6.41369 9.34986 6.28476 9.47879 6.19256 9.62925C6.11081 9.76265 6.05057 9.90809 6.01404 10.0602C5.97285 10.2318 5.97285 10.4141 5.97285 10.7788V12.0271Z" stroke="black" stroke-width="1.5" stroke-linecap="round" stroke-linejoin="round"/>
</svg>
