<svg width="8" height="8" viewBox="0 0 8 8" fill="none" xmlns="http://www.w3.org/2000/svg">
<path d="M5.72656 4.25L7.67969 2.29688C7.93359 2.0625 7.93359 1.67188 7.67969 1.4375L7.25 1.00781C7.01562 0.753906 6.625 0.753906 6.39062 1.00781L4.4375 2.96094L2.46484 1.00781C2.23047 0.753906 1.83984 0.753906 1.60547 1.00781L1.17578 1.4375C0.921875 1.67188 0.921875 2.0625 1.17578 2.29688L3.12891 4.25L1.17578 6.22266C0.921875 6.45703 0.921875 6.84766 1.17578 7.08203L1.60547 7.51172C1.83984 7.76562 2.23047 7.76562 2.46484 7.51172L4.4375 5.55859L6.39062 7.51172C6.625 7.76562 7.01562 7.76562 7.25 7.51172L7.67969 7.08203C7.93359 6.84766 7.93359 6.45703 7.67969 6.22266L5.72656 4.25Z" fill="#ED6767"/>
</svg>
