<svg width="16" height="16" viewBox="0 0 16 16" fill="none" xmlns="http://www.w3.org/2000/svg">
<path fill-rule="evenodd" clip-rule="evenodd" d="M8 16C12.4183 16 16 12.4183 16 8C16 3.58172 12.4183 0 8 0C3.58172 0 0 3.58172 0 8C0 12.4183 3.58172 16 8 16ZM4.46447 11.5355C4.17157 11.2426 4.17157 10.7678 4.46447 10.4749L6.93934 7.99999L4.46447 5.52512C4.17157 5.23223 4.17157 4.75735 4.46447 4.46446C4.75736 4.17157 5.23223 4.17157 5.52513 4.46446L8 6.93933L10.4749 4.46446C10.7678 4.17156 11.2426 4.17156 11.5355 4.46446C11.8284 4.75735 11.8284 5.23222 11.5355 5.52512L9.06066 7.99999L11.5355 10.4749C11.8284 10.7678 11.8284 11.2426 11.5355 11.5355C11.2426 11.8284 10.7678 11.8284 10.4749 11.5355L8 9.06065L5.52513 11.5355C5.23223 11.8284 4.75736 11.8284 4.46447 11.5355Z" fill="#BCBCC8" fill-opacity="0.4"/>
</svg>
