<svg width="28" height="28" viewBox="0 0 28 28" fill="none" xmlns="http://www.w3.org/2000/svg">
<circle cx="14" cy="14" r="10" fill="#CCCCCC"/>
<path fill-rule="evenodd" clip-rule="evenodd" d="M16.8464 12.0134C17.0787 11.7771 17.0787 11.394 16.8464 11.1577C16.6141 10.9214 16.2374 10.9214 16.0051 11.1577L13.9988 13.1984L11.9895 11.158C11.757 10.9219 11.38 10.9219 11.1475 11.158C10.915 11.3941 10.915 11.7769 11.1475 12.013L13.1575 14.0541L11.1845 16.0608C10.9522 16.2971 10.9522 16.6802 11.1845 16.9165C11.4168 17.1528 11.7935 17.1528 12.0258 16.9165L13.9994 14.9091L15.972 16.9123C16.2046 17.1484 16.5815 17.1484 16.814 16.9123C17.0465 16.6762 17.0465 16.2934 16.814 16.0573L14.8407 14.0534L16.8464 12.0134Z" fill="white"/>
</svg>
