<svg width="14" height="14" viewBox="0 0 14 14" fill="none" xmlns="http://www.w3.org/2000/svg">
<path d="M4.95398 7.906L9.05198 10.294M9.04598 3.706L4.95398 6.094M12.4 2.8C12.4 3.79411 11.5941 4.6 10.6 4.6C9.60586 4.6 8.79998 3.79411 8.79998 2.8C8.79998 1.80589 9.60586 1 10.6 1C11.5941 1 12.4 1.80589 12.4 2.8ZM5.19998 7C5.19998 7.99411 4.39409 8.8 3.39998 8.8C2.40586 8.8 1.59998 7.99411 1.59998 7C1.59998 6.00589 2.40586 5.2 3.39998 5.2C4.39409 5.2 5.19998 6.00589 5.19998 7ZM12.4 11.2C12.4 12.1941 11.5941 13 10.6 13C9.60586 13 8.79998 12.1941 8.79998 11.2C8.79998 10.2059 9.60586 9.4 10.6 9.4C11.5941 9.4 12.4 10.2059 12.4 11.2Z" stroke="#69708A" stroke-width="1.5" stroke-linecap="round" stroke-linejoin="round"/>
</svg>
