<svg width="41" height="40" viewBox="0 0 41 40" fill="none" xmlns="http://www.w3.org/2000/svg">
<path fill-rule="evenodd" clip-rule="evenodd" d="M39.5 20C39.5 30.4934 30.9934 39 20.5 39C10.0066 39 1.5 30.4934 1.5 20C1.5 9.50659 10.0066 1 20.5 1C30.9934 1 39.5 9.50659 39.5 20ZM40.5 20C40.5 31.0457 31.5457 40 20.5 40C9.4543 40 0.5 31.0457 0.5 20C0.5 8.9543 9.4543 0 20.5 0C31.5457 0 40.5 8.9543 40.5 20ZM19.5625 13.125C19.5625 12.6072 19.9822 12.1875 20.5 12.1875C21.0178 12.1875 21.4375 12.6072 21.4375 13.125V23.75C21.4375 24.2678 21.0178 24.6875 20.5 24.6875C19.9822 24.6875 19.5625 24.2678 19.5625 23.75V13.125ZM21.4375 26.875C21.4375 27.3928 21.0178 27.8125 20.5 27.8125C19.9822 27.8125 19.5625 27.3928 19.5625 26.875C19.5625 26.3572 19.9822 25.9375 20.5 25.9375C21.0178 25.9375 21.4375 26.3572 21.4375 26.875Z" fill="#AAAAAA"/>
</svg>
