<svg width="18" height="18" viewBox="0 0 18 18" fill="none" xmlns="http://www.w3.org/2000/svg">
<path d="M17 9.00887C17 13.0453 13.7278 16.3175 9.69133 16.3175C8.76546 16.3175 7.87981 16.1454 7.06463 15.8313C6.91559 15.7739 6.84107 15.7452 6.78181 15.7315C6.72353 15.7181 6.68133 15.7125 6.62156 15.7102C6.56079 15.7079 6.49412 15.7148 6.36077 15.7286L1.95749 16.1837C1.53768 16.2271 1.32777 16.2488 1.20395 16.1733C1.09611 16.1075 1.02265 15.9976 1.0031 15.8728C0.980647 15.7295 1.08095 15.5439 1.28156 15.1725L2.68797 12.5693C2.8038 12.3549 2.86171 12.2477 2.88794 12.1447C2.91384 12.0429 2.92011 11.9695 2.91182 11.8648C2.90343 11.7588 2.85691 11.6207 2.76388 11.3447C2.51665 10.6113 2.38265 9.82572 2.38265 9.00887C2.38265 4.9724 5.65486 1.7002 9.69133 1.7002C13.7278 1.7002 17 4.9724 17 9.00887Z" stroke="white" stroke-width="2" stroke-linecap="round" stroke-linejoin="round"/>
</svg>
