<svg width="18" height="18" viewBox="0 0 18 18" fill="none" xmlns="http://www.w3.org/2000/svg">
<path d="M1.30078 8.08751C1.30078 7.59695 1.30078 7.35167 1.36401 7.12579C1.42002 6.9257 1.51206 6.73751 1.63561 6.57046C1.7751 6.38187 1.96871 6.23128 2.35593 5.93011L8.14871 1.42462C8.44877 1.19123 8.59881 1.07454 8.76448 1.02968C8.91066 0.990105 9.06473 0.990105 9.21091 1.02968C9.37658 1.07454 9.52662 1.19123 9.82668 1.42462L15.6195 5.93011C16.0067 6.23129 16.2003 6.38187 16.3398 6.57046C16.4633 6.73751 16.5554 6.9257 16.6114 7.12579C16.6746 7.35167 16.6746 7.59695 16.6746 8.08751V14.2669C16.6746 15.2236 16.6746 15.7019 16.4884 16.0673C16.3247 16.3887 16.0633 16.65 15.7419 16.8138C15.3765 17 14.8982 17 13.9415 17H4.03391C3.07722 17 2.59888 17 2.23348 16.8138C1.91206 16.65 1.65074 16.3887 1.48696 16.0673C1.30078 15.7019 1.30078 15.2236 1.30078 14.2669V8.08751Z" stroke="white" stroke-width="2" stroke-linecap="round" stroke-linejoin="round"/>
</svg>
