<svg width="18" height="18" viewBox="0 0 18 18" fill="none" xmlns="http://www.w3.org/2000/svg">
<path fill-rule="evenodd" clip-rule="evenodd" d="M14.1179 8.05894C14.1179 11.4052 11.4052 14.1179 8.05894 14.1179C4.71268 14.1179 2 11.4052 2 8.05894C2 4.71268 4.71268 2 8.05894 2C11.4052 2 14.1179 4.71268 14.1179 8.05894ZM13.0066 14.4208C11.641 15.4844 9.92394 16.1179 8.05894 16.1179C3.60811 16.1179 0 12.5098 0 8.05894C0 3.60811 3.60811 0 8.05894 0C12.5098 0 16.1179 3.60811 16.1179 8.05894C16.1179 9.92394 15.4844 11.641 14.4208 13.0066L17.7039 16.2896C18.0944 16.6802 18.0944 17.3133 17.7039 17.7039C17.3133 18.0944 16.6802 18.0944 16.2896 17.7039L13.0066 14.4208Z" fill="white"/>
</svg>
