<svg width="19" height="19" viewBox="0 0 19 19" fill="none" xmlns="http://www.w3.org/2000/svg">
<path fill-rule="evenodd" clip-rule="evenodd" d="M14.2023 12.3159V7.20105C14.2023 4.32859 11.8737 2 9.00122 2C6.12876 2 3.80017 4.32859 3.80017 7.20105V12.3159H14.2023ZM9.00122 0C5.02419 0 1.80017 3.22402 1.80017 7.20105V12.3159V12.5263H0.895025C0.400717 12.5263 0 12.927 0 13.4213C0 13.9156 0.400716 14.3163 0.895025 14.3163H5.30078C5.30083 16.3569 6.96291 18.0013 9.00117 18.0013C11.0394 18.0013 12.7015 16.3569 12.7016 14.3163H17.1076C17.6019 14.3163 18.0026 13.9156 18.0026 13.4213C18.0026 12.927 17.6019 12.5263 17.1076 12.5263H16.2023V12.3159V7.20105C16.2023 3.22402 12.9783 0 9.00122 0ZM10.7016 14.3163H7.30078C7.30083 15.2416 8.05673 16.0013 9.00117 16.0013C9.94562 16.0013 10.7015 15.2416 10.7016 14.3163Z" fill="white"/>
</svg>
